<?xml version="1.0" encoding="UTF-8" standalone="no"?>
<!DOCTYPE svg PUBLIC "-//W3C//DTD SVG 1.1//EN" "http://www.w3.org/Graphics/SVG/1.1/DTD/svg11.dtd">
<svg width="100%" height="100%" viewBox="0 0 40 34" version="1.1" xmlns="http://www.w3.org/2000/svg"
    xmlns:xlink="http://www.w3.org/1999/xlink" xml:space="preserve" xmlns:serif="http://www.serif.com/"
    style="fill-rule:evenodd;clip-rule:evenodd;stroke-linejoin:round;stroke-miterlimit:2;">
    <path
        d="M34.542,23.887L8.216,23.887C7.895,23.887 7.631,23.623 7.631,23.302C7.631,22.981 7.895,22.717 8.216,22.717L34.542,22.717C34.863,22.717 35.127,22.981 35.127,23.302C35.127,23.623 34.863,23.887 34.542,23.887Z"
        style="fill:rgb(57,116,164);fill-rule:nonzero;" />
    <path
        d="M34.542,21.669L8.216,21.669C7.895,21.669 7.631,21.405 7.631,21.084C7.631,20.763 7.895,20.499 8.216,20.499L34.542,20.499C34.863,20.499 35.127,20.763 35.127,21.084C35.127,21.405 34.863,21.669 34.542,21.669Z"
        style="fill:rgb(255,223,89);fill-rule:nonzero;" />
    <path d="M30.233,23.229L30.233,27.141L31.908,26.171L33.584,27.141L33.584,23.23L30.234,23.23L30.233,23.229Z"
        style="fill:rgb(57,116,164);fill-rule:nonzero;" />
    <path
        d="M38.08,13.928C38.059,13.908 38.037,13.891 38.015,13.872C37.51,13.434 37.083,12.915 36.749,12.336L36.74,12.318L36.739,12.318C36.362,11.655 36.118,10.924 36.019,10.168C36.015,10.121 36.009,10.075 36.004,10.028L36.004,10.019C35.962,9.753 35.849,9.502 35.677,9.294L35.629,9.24C34.227,7.662 32.378,6.547 30.328,6.042C30.271,4.828 30.551,3.622 31.138,2.558C31.168,2.503 31.184,2.44 31.184,2.377C31.184,2.171 31.015,2.001 30.808,2.001L30.78,2.001C28.187,2.421 25.769,3.577 23.815,5.331C22.674,6.351 21.711,7.554 20.965,8.891C20.411,8.594 19.835,8.338 19.243,8.127C17.471,7.492 15.581,7.254 13.707,7.43C12.266,7.56 10.858,7.933 9.542,8.535C5.379,10.437 2.405,14.49 2.039,19.27C2.013,19.6 2,19.935 2,20.27L2,23.503C2,24.063 2.083,24.601 2.237,25.108C2.654,26.477 3.584,27.634 4.833,28.334C5.593,28.761 6.463,29.014 7.393,29.038L15.605,29.038C15.686,29.032 15.767,29.032 15.848,29.038C15.861,29.038 15.874,29.038 15.888,29.041C15.909,29.042 15.93,29.043 15.952,29.046C16.844,29.149 17.553,29.857 17.658,30.748C17.67,30.824 17.674,30.901 17.672,30.978L17.671,31.014L17.671,31.018C17.686,31.674 18.032,32.281 18.589,32.628C18.895,32.817 19.249,32.918 19.609,32.918C20.622,32.918 21.473,32.124 21.544,31.114C21.546,31.088 21.548,31.063 21.548,31.037L21.548,30.929C21.548,30.267 21.438,29.629 21.235,29.038C20.942,28.187 20.456,27.415 19.814,26.784C18.726,25.71 17.256,25.107 15.727,25.108L8.88,25.108C8.864,25.11 8.847,25.11 8.83,25.11C8.814,25.11 8.797,25.11 8.78,25.108C7.197,25.082 5.909,23.773 5.91,22.19C5.91,22.19 5.91,22.189 5.91,22.189C5.91,20.587 7.228,19.269 8.83,19.269L34.936,19.269C35.592,19.268 36.176,18.843 36.379,18.219L36.399,18.149C36.49,17.855 36.669,17.599 36.905,17.412L36.909,17.41C36.927,17.394 36.947,17.38 36.967,17.366C36.993,17.346 37.021,17.328 37.049,17.311C38.094,16.532 38.514,15.155 38.081,13.926L38.08,13.928Z"
        style="fill:rgb(230,230,230);fill-rule:nonzero;" />
    <path
        d="M21.005,8.824C21.708,12.204 24.64,14.739 28.152,14.739C30.219,14.739 32.085,13.859 33.414,12.447C33.571,12.28 33.788,12.03 33.978,11.774C34.616,10.912 35.062,9.924 35.287,8.876C33.93,7.488 32.212,6.506 30.327,6.042C30.27,4.828 30.55,3.621 31.137,2.557C31.167,2.502 31.183,2.439 31.183,2.376C31.183,2.17 31.014,2 30.807,2C30.807,2 30.806,2 30.805,2C30.797,2 30.788,2 30.779,2.002C28.186,2.421 25.768,3.577 23.814,5.332C22.693,6.335 21.744,7.515 21.004,8.824L21.005,8.824Z"
        style="fill:rgb(57,116,164);fill-rule:nonzero;" />
    <path
        d="M34.593,12.763C34.532,12.763 34.472,12.748 34.418,12.719C33.988,12.47 33.482,12.387 32.995,12.485C32.783,12.525 32.583,12.599 32.4,12.7L32.392,12.706C32.38,12.71 32.37,12.717 32.36,12.724C32.312,12.746 32.26,12.757 32.208,12.757C32.005,12.757 31.839,12.59 31.839,12.388C31.839,12.27 31.895,12.159 31.99,12.09L32.026,12.068C32.874,11.592 33.913,11.592 34.761,12.068L34.797,12.09C34.9,12.158 34.961,12.273 34.961,12.396C34.961,12.597 34.796,12.763 34.594,12.763C34.594,12.763 34.593,12.763 34.593,12.763Z"
        style="fill:rgb(39,43,48);fill-rule:nonzero;" />
    <path
        d="M36.145,15.807C35.83,15.709 35.511,15.622 35.19,15.547C34.236,15.309 33.264,15.156 32.283,15.088C31.631,15.034 30.977,15.061 30.327,15.111L29.839,15.165C29.677,15.188 29.519,15.227 29.357,15.255C29.029,15.295 28.721,15.415 28.395,15.483C29.001,15.205 29.642,15.012 30.301,14.911C30.962,14.809 31.632,14.781 32.299,14.828C32.964,14.873 33.624,14.978 34.271,15.141C34.917,15.298 35.545,15.521 36.145,15.807ZM35.858,16.407C35.532,16.356 35.204,16.318 34.875,16.292C33.896,16.198 32.911,16.191 31.931,16.27C31.278,16.313 30.636,16.437 30.001,16.583L29.526,16.709C29.37,16.756 29.218,16.817 29.063,16.869C28.744,16.958 28.458,17.121 28.146,17.238C28.704,16.873 29.309,16.587 29.946,16.389C30.584,16.19 31.243,16.062 31.909,16.009C32.574,15.959 33.244,15.959 33.906,16.027C34.568,16.087 35.222,16.214 35.858,16.407ZM35.813,17.106C35.483,17.132 35.154,17.157 34.828,17.206C33.853,17.326 32.89,17.532 31.95,17.82C31.322,18.003 30.722,18.262 30.132,18.543L29.697,18.768C29.554,18.848 29.419,18.94 29.279,19.025C28.986,19.18 28.742,19.401 28.462,19.582C28.928,19.105 29.458,18.696 30.037,18.365C30.617,18.033 31.233,17.766 31.872,17.571C32.509,17.374 33.163,17.236 33.825,17.156C34.484,17.071 35.15,17.054 35.813,17.106Z"
        style="fill:rgb(39,43,48);fill-rule:nonzero;" />
    <path
        d="M38.015,13.872C37.905,13.776 37.798,13.676 37.695,13.572C37.406,13.747 37.228,14.062 37.228,14.4C37.228,14.93 37.665,15.367 38.195,15.368L38.21,15.368C38.216,15.327 38.226,15.288 38.23,15.246C38.281,14.801 38.23,14.35 38.08,13.927L38.015,13.872Z"
        style="fill:rgb(242,123,170);fill-rule:nonzero;" />
    <path
        d="M29.993,6.54C29.993,6.586 29.993,6.632 29.995,6.678C28.826,7.153 27.753,7.836 26.829,8.695C26.412,5.814 28.327,3.069 31.174,2.465C30.401,3.683 29.992,5.097 29.994,6.54L29.993,6.54Z"
        style="fill:white;fill-rule:nonzero;" />
    <path
        d="M19.814,26.785C19.685,26.659 19.55,26.539 19.41,26.425C17.958,26.724 16.743,27.72 16.165,29.085C17.044,29.287 17.672,30.076 17.672,30.978L17.671,31.015L17.671,31.019C17.687,31.676 18.032,32.282 18.589,32.63C18.895,32.819 19.249,32.92 19.609,32.92C20.651,32.92 21.517,32.08 21.548,31.038L21.548,30.93C21.548,30.268 21.438,29.63 21.235,29.039C20.942,28.188 20.455,27.416 19.814,26.784L19.814,26.785Z"
        style="fill:rgb(255,223,89);fill-rule:nonzero;" />
</svg>
